<mxfile host="Electron" modified="2023-04-12T12:35:48.858Z" agent="Mozilla/5.0 (Macintosh; Intel Mac OS X 10_15_7) AppleWebKit/537.36 (KHTML, like Gecko) draw.io/21.1.2 Chrome/106.0.5249.199 Electron/21.4.3 Safari/537.36" etag="uGtPDSJmd_r8JmpuXBTd" version="21.1.2" type="device">
  <diagram name="Seite-1" id="hJGiVDNFr1byjW9m4TUq">
    <mxGraphModel dx="1266" dy="743" grid="1" gridSize="10" guides="1" tooltips="1" connect="1" arrows="1" fold="1" page="1" pageScale="1" pageWidth="827" pageHeight="1169" math="0" shadow="0">
      <root>
        <mxCell id="0" />
        <mxCell id="1" parent="0" />
        <mxCell id="TipwEh0zVkdjdQUEoHJi-8" value="Start Application" style="ellipse;whiteSpace=wrap;html=1;rounded=0;" parent="1" vertex="1">
          <mxGeometry x="200" y="40" width="80" height="80" as="geometry" />
        </mxCell>
        <mxCell id="LSEDLaRRzo46k3tT0a5S-2" value="" style="edgeStyle=orthogonalEdgeStyle;rounded=0;orthogonalLoop=1;jettySize=auto;html=1;" edge="1" parent="1" source="TipwEh0zVkdjdQUEoHJi-11" target="TipwEh0zVkdjdQUEoHJi-18">
          <mxGeometry relative="1" as="geometry" />
        </mxCell>
        <mxCell id="LSEDLaRRzo46k3tT0a5S-4" value="yes" style="edgeLabel;html=1;align=center;verticalAlign=middle;resizable=0;points=[];" vertex="1" connectable="0" parent="LSEDLaRRzo46k3tT0a5S-2">
          <mxGeometry x="-0.05" y="-2" relative="1" as="geometry">
            <mxPoint as="offset" />
          </mxGeometry>
        </mxCell>
        <mxCell id="LSEDLaRRzo46k3tT0a5S-10" style="edgeStyle=orthogonalEdgeStyle;rounded=0;orthogonalLoop=1;jettySize=auto;html=1;" edge="1" parent="1" source="TipwEh0zVkdjdQUEoHJi-11" target="TipwEh0zVkdjdQUEoHJi-26">
          <mxGeometry relative="1" as="geometry" />
        </mxCell>
        <mxCell id="LSEDLaRRzo46k3tT0a5S-12" value="no" style="edgeLabel;html=1;align=center;verticalAlign=middle;resizable=0;points=[];" vertex="1" connectable="0" parent="LSEDLaRRzo46k3tT0a5S-10">
          <mxGeometry x="-0.65" y="3" relative="1" as="geometry">
            <mxPoint as="offset" />
          </mxGeometry>
        </mxCell>
        <mxCell id="TipwEh0zVkdjdQUEoHJi-11" value="got Agruments?" style="rhombus;whiteSpace=wrap;html=1;rounded=0;" parent="1" vertex="1">
          <mxGeometry x="180" y="400" width="120" height="80" as="geometry" />
        </mxCell>
        <mxCell id="TipwEh0zVkdjdQUEoHJi-25" style="edgeStyle=orthogonalEdgeStyle;rounded=0;orthogonalLoop=1;jettySize=auto;html=1;" parent="1" source="TipwEh0zVkdjdQUEoHJi-8" target="TipwEh0zVkdjdQUEoHJi-15" edge="1">
          <mxGeometry relative="1" as="geometry">
            <Array as="points">
              <mxPoint x="240" y="220" />
              <mxPoint x="240" y="220" />
            </Array>
          </mxGeometry>
        </mxCell>
        <mxCell id="LSEDLaRRzo46k3tT0a5S-6" value="" style="edgeStyle=orthogonalEdgeStyle;rounded=0;orthogonalLoop=1;jettySize=auto;html=1;" edge="1" parent="1" source="TipwEh0zVkdjdQUEoHJi-15" target="TipwEh0zVkdjdQUEoHJi-23">
          <mxGeometry relative="1" as="geometry" />
        </mxCell>
        <mxCell id="TipwEh0zVkdjdQUEoHJi-15" value="Read environments" style="whiteSpace=wrap;html=1;rounded=0;" parent="1" vertex="1">
          <mxGeometry x="180" y="160" width="120" height="80" as="geometry" />
        </mxCell>
        <mxCell id="LSEDLaRRzo46k3tT0a5S-9" value="" style="edgeStyle=orthogonalEdgeStyle;rounded=0;orthogonalLoop=1;jettySize=auto;html=1;" edge="1" parent="1" source="TipwEh0zVkdjdQUEoHJi-18" target="LSEDLaRRzo46k3tT0a5S-8">
          <mxGeometry relative="1" as="geometry" />
        </mxCell>
        <mxCell id="TipwEh0zVkdjdQUEoHJi-18" value="Read arguments" style="whiteSpace=wrap;html=1;rounded=0;" parent="1" vertex="1">
          <mxGeometry x="340" y="400" width="120" height="80" as="geometry" />
        </mxCell>
        <mxCell id="LSEDLaRRzo46k3tT0a5S-7" value="" style="edgeStyle=orthogonalEdgeStyle;rounded=0;orthogonalLoop=1;jettySize=auto;html=1;" edge="1" parent="1" source="TipwEh0zVkdjdQUEoHJi-23" target="TipwEh0zVkdjdQUEoHJi-11">
          <mxGeometry relative="1" as="geometry" />
        </mxCell>
        <mxCell id="TipwEh0zVkdjdQUEoHJi-23" value="Set Variables" style="whiteSpace=wrap;html=1;rounded=0;" parent="1" vertex="1">
          <mxGeometry x="180" y="280" width="120" height="80" as="geometry" />
        </mxCell>
        <mxCell id="TipwEh0zVkdjdQUEoHJi-29" style="edgeStyle=orthogonalEdgeStyle;rounded=0;orthogonalLoop=1;jettySize=auto;html=1;" parent="1" source="TipwEh0zVkdjdQUEoHJi-26" target="TipwEh0zVkdjdQUEoHJi-28" edge="1">
          <mxGeometry relative="1" as="geometry" />
        </mxCell>
        <mxCell id="TipwEh0zVkdjdQUEoHJi-31" style="edgeStyle=orthogonalEdgeStyle;rounded=0;orthogonalLoop=1;jettySize=auto;html=1;" parent="1" source="TipwEh0zVkdjdQUEoHJi-26" target="TipwEh0zVkdjdQUEoHJi-30" edge="1">
          <mxGeometry relative="1" as="geometry" />
        </mxCell>
        <mxCell id="TipwEh0zVkdjdQUEoHJi-26" value="Single or Runtime?" style="rhombus;whiteSpace=wrap;html=1;rounded=0;" parent="1" vertex="1">
          <mxGeometry x="180" y="640" width="120" height="80" as="geometry" />
        </mxCell>
        <mxCell id="TipwEh0zVkdjdQUEoHJi-33" style="edgeStyle=orthogonalEdgeStyle;rounded=0;orthogonalLoop=1;jettySize=auto;html=1;" parent="1" source="TipwEh0zVkdjdQUEoHJi-28" target="TipwEh0zVkdjdQUEoHJi-32" edge="1">
          <mxGeometry relative="1" as="geometry" />
        </mxCell>
        <mxCell id="TipwEh0zVkdjdQUEoHJi-28" value="Call Single" style="whiteSpace=wrap;html=1;rounded=0;" parent="1" vertex="1">
          <mxGeometry x="180" y="760" width="120" height="80" as="geometry" />
        </mxCell>
        <mxCell id="TipwEh0zVkdjdQUEoHJi-34" style="edgeStyle=orthogonalEdgeStyle;rounded=0;orthogonalLoop=1;jettySize=auto;html=1;entryX=1;entryY=0.5;entryDx=0;entryDy=0;" parent="1" source="TipwEh0zVkdjdQUEoHJi-30" target="TipwEh0zVkdjdQUEoHJi-32" edge="1">
          <mxGeometry relative="1" as="geometry">
            <Array as="points">
              <mxPoint x="400" y="940" />
            </Array>
          </mxGeometry>
        </mxCell>
        <mxCell id="TipwEh0zVkdjdQUEoHJi-30" value="Call Runtime" style="whiteSpace=wrap;html=1;rounded=0;" parent="1" vertex="1">
          <mxGeometry x="340" y="760" width="120" height="80" as="geometry" />
        </mxCell>
        <mxCell id="TipwEh0zVkdjdQUEoHJi-32" value="End" style="ellipse;whiteSpace=wrap;html=1;rounded=0;" parent="1" vertex="1">
          <mxGeometry x="200" y="900" width="80" height="80" as="geometry" />
        </mxCell>
        <mxCell id="LSEDLaRRzo46k3tT0a5S-11" style="edgeStyle=orthogonalEdgeStyle;rounded=0;orthogonalLoop=1;jettySize=auto;html=1;" edge="1" parent="1" source="LSEDLaRRzo46k3tT0a5S-8" target="TipwEh0zVkdjdQUEoHJi-26">
          <mxGeometry relative="1" as="geometry">
            <Array as="points">
              <mxPoint x="260" y="560" />
            </Array>
          </mxGeometry>
        </mxCell>
        <mxCell id="LSEDLaRRzo46k3tT0a5S-8" value="Set Variables" style="whiteSpace=wrap;html=1;rounded=0;" vertex="1" parent="1">
          <mxGeometry x="340" y="520" width="120" height="80" as="geometry" />
        </mxCell>
      </root>
    </mxGraphModel>
  </diagram>
</mxfile>
